<svg version="1" xmlns="http://www.w3.org/2000/svg" width="640" height="640" viewBox="0 0 480.000000 480.000000"><path d="M26 122.4c0 .7 1.7 3.1 3.9 5.2 2.1 2.2 4.6 5.4 5.5 7.2 3.1 5.9 13.8 11 16.5 7.8 1.8-2.1 9.8-2.1 15.1 0 4.2 1.7 4.5 2.1 3.1 4.3-.7 1.1-1.5 1.1-4 .3-1.7-.6-3.1-.7-3.1-.2 0 .5.9 1.2 2 1.5 1.1.3 2 1 2 1.5s.9 1.1 1.9 1.5c1 .3 2.1 1.5 2.4 2.6.5 1.9.2 1.9-7.1 1.3-8.3-.7-11.6-1.8-10.9-3.7.2-.7 1.9-1.4 3.8-1.7l3.4-.6-3.8-1.8c-2.9-1.4-5-1.7-9-1.3-4 .5-6.2.2-9.7-1.4l-4.5-2 3.4 3.5c1.9 2 3.9 3.6 4.4 3.6 1.4 0 3.4 2.4 3 3.6-.7 2.2 4.8 5.5 8.1 4.9 6.9-1.2 13.2-1.2 16.5-.1 4.2 1.5 6.1 4 4.4 5.7-.9.9-2.3.8-5.8-.5-2.5-1-5.1-1.5-5.8-1.3-.7.4-.6.6.5.6 2.3.1 8.8 6.1 8.8 8.2 0 3 2.2 3.8 8.5 3 3.9-.5 6.6-.5 7.7.2 2.7 1.7 5.8-1.7 5.7-6.2-.1-2 0-6.9 0-10.9.1-4-.4-8.3-1.1-9.5-.6-1.2-1.1-2.4-1.1-2.7.4-2.3-10.5-9.9-14.9-10.5l-3.3-.4 2.7 2.4c1.5 1.2 3.1 2.4 3.6 2.6.5.2 1.3 1.4 1.6 2.6.6 1.9.4 2.3-1.3 2.3-1.1 0-2.4-.6-2.8-1.3-1.3-2.2-7.3-3.9-15.8-4.6-7.5-.6-8-.8-8.3-3-.4-2.2-.1-2.3 3-1.7 3.1.6 3.2.6 1.2-.8-1.1-.8-5.4-1.8-9.5-2.2-4.1-.3-8.1-1.3-9-2-.8-.8-2.5-1.4-3.6-1.4s-3.4-1.4-5.2-3c-1.9-1.8-3.1-2.5-3.1-1.6zM83.5 172c.3.5-.1 1-.9 1s-1.8-.5-2.1-1c-.3-.6.1-1 .9-1s1.8.4 2.1 1zM145.5 126.9c-10.3 2.5-20.3 10.3-24.8 19.4-11.6 22.7 2.1 49.7 27.2 53.8 3.1.5 10.9.9 17.4.9H177v-3.9c0-4.9-2.3-11.5-5.5-15.7l-2.5-3.3-5 2.6c-13.7 7.1-27.6-1.5-27.4-17.2 0-7.4 2.5-12.7 7.7-16.9 5.2-4.2 12.9-4.3 19.9-.4 4.4 2.4 4.8 2.5 6.2.9 2.5-2.8 5.7-10.8 6.3-16.1l.6-5-14.4.1c-7.9.1-15.7.4-17.4.8zM199.7 127.3C190.6 130.2 185 138 185 148c0 7.1 1.6 11.3 5.9 15.6 5 5.1 8.8 6.4 18.8 6.4 9.1.1 11 .7 13.1 4.7 1.7 3.1 1.5 4.1-1.3 6.8-2.1 2.2-3.3 2.5-10.3 2.5-6.4 0-8.7-.5-13.1-2.6-4.9-2.5-5.3-2.5-7.1-.9-2.6 2.4-5.9 10.5-6.2 15.6l-.3 4.4 19-.1c21.1 0 23.5-.5 29.4-6.6 4.6-4.6 6.2-8.2 6.8-14.8 1-10.3-5.7-20.5-15.6-23.8-1.9-.7-7.1-1.2-11.6-1.2-8.8 0-11.5-1.3-11.5-5.8 0-3.8 2.6-5.2 9.9-5.2 5.3 0 7.8.5 11.5 2.5 2.6 1.4 4.9 2.5 5.1 2.5 2.4 0 9.3-17.6 8.1-20.6-.4-1.1-3.4-1.4-16.3-1.3-9.1 0-17.4.6-19.6 1.2zM245.2 134.2l.3 8.2 3.8-.1h3.7V184h-8.1l.3 8.2.3 8.3 30.4.3c16.8.1 30.8-.1 31.2-.5 1.9-2-3.3-17.6-6.8-20.4-.9-.8-2.7-.4-6.5 1.5-4.2 2.1-6.6 2.6-12.5 2.6H274v-14h11.6l-.1-7.8-.2-7.7-5.6-.3-5.7-.3v-12.1l7.8.7c7.4.7 11.7 2 15.4 4.7 1.5 1 2 .9 3.3-.7 2.9-3.6 6.4-11.9 6.7-16l.3-4-31.3-.3-31.3-.2.3 8.2zM454 127.8c0 1.6-8.5 5.3-13 5.7-4.6.5-9.1 1.3-12.2 2.1-2.9.8-2.1 2.4 1.2 2.4s3.8 1.1 1.5 3c-1.1.9-2.6.9-6.5.1-4.4-1-5.6-.8-9.5 1-2.4 1.1-4.9 2.7-5.6 3.5-.6.8-2 1.4-3 1.4-3.5 0-1.9-3.4 3.4-7.4 2.8-2.1 4.3-3.6 3.2-3.2-7.2 2.2-12.1 4.6-12.9 6.3-.5 1.1-1.8 2.4-2.9 2.9-1.1.5-2.3 1.8-2.5 2.9-1.4 5.5.3 25.5 2.2 26.7.6.5 2.9.5 5.1.2 2.2-.3 5.2-.1 6.6.5 3 1.1 6.9-.9 6.9-3.5 0-.8.4-1.4.8-1.4.5 0 1.4-1.1 2-2.4.7-1.6 2.1-2.6 3.9-2.8 1.5-.2 2.6-.8 2.3-1.3-.3-.6-1.2-.9-2-.7-7.2 1.4-10.2 1.4-9.8.1.8-2.4 6.9-3.8 13.8-3.3 3.6.3 7.3.5 8.4.5 2.2 0 6.8-4 6.3-5.5-.2-.6 1.1-2.1 3-3.4 5.2-3.6 4.4-5.2-1.9-3.8-7.5 1.6-28 1.5-28.5-.1-.7-1.9 4.2-3.4 11.6-3.6 4.4-.1 6.6.2 6.8 1 .3.7 1.6 1.3 3 1.3 3.1 0 12.4-5.7 12.1-7.4-.1-.6 1-2.5 2.6-4.1 3.4-3.6 6.1-8.5 4.6-8.5-.5 0-1 .4-1 .8zm-22.2 26.3c.5 2.6-3.8 4-11.3 3.7l-7-.3 2.9-2.7c2.6-2.5 3.5-2.8 9-2.5 4.6.1 6.1.6 6.4 1.8zm-19.8 5.3c0 .2-.9.6-2 .9-1.1.3-1.8.1-1.4-.4.5-.9 3.4-1.3 3.4-.5zM367 133.1c-4.6 2.2-8.6 4.2-8.9 4.4-.2.3.4 1.4 1.3 2.4 1.1 1.2 1.5 2.5 1 3.3-2.5 4-24.5 27.6-24.8 26.6-.2-.7-.9-4.1-1.6-7.6-1.4-8.1 0-10.6 6.1-10.7 10.8-.3 10.3-15.5-.6-15.5-5 0-7.5 2.8-7.5 8.4 0 3.3-.7 5.2-2.5 7.4l-2.5 3 2 9.1c1.1 5 2 10.2 2 11.6 0 2.5-.2 2.6-4.2 2.2-7.5-.8-12.8 3.6-12.8 10.5 0 7.2 3.4 10.9 10.1 11.1 8.1.2 13.3-6.6 11-14.2-.9-3.1-.7-3.7 3.1-8.3 2.3-2.7 4.8-4.6 5.5-4.4.7.3 5.2.8 10 1.2 8.6.6 8.9.6 11.2-2 2-2.1 2.7-2.3 3.9-1.4 1.2 1 2.1.4 5.3-3.2 2.1-2.5 3.8-5 3.9-5.5 0-1.1-7.4-7.5-8.7-7.5-.8 0-6.5 5.8-7.9 8.1-.3.6 0 1.6.6 2.4 1 1.2 1 1.8-.1 3.1-1 1.2-2.5 1.4-7.8.8-3.6-.3-6.8-.8-6.9-1-.5-.3 17.9-21.4 18.7-21.4.2 0 1.3.7 2.3 1.7 1 .9 2 1.4 2.2 1.2.5-.6 6.6-18.3 6.6-19.2 0-1.1-1-.8-10 3.4zM62 195.4c0 1.9-9.2 3.5-9.8 1.7-.2-.6-1-1.1-1.8-1.1-1.1 0-1.3.9-.8 4.2.4 2.4 1 4.7 1.4 5.2 1 1 3.2-.2 2.5-1.4-.5-.9.4-1.2 6.9-2.5 1.1-.2 2.5.4 3.2 1.3 1.2 1.6 1.3 1.6 1.9-.1 1.1-2.6-.4-8.7-2-8.7-.8 0-1.5.6-1.5 1.4zM57.5 208.4c-3.9.9-5 1.5-5 3.1 0 1.8.6 2 4.8 1.7 5.9-.4 6.1 1.1.5 3.1-3.3 1.1-4.2 1.8-4 3.3.5 2.6.2 2.5 6 .7 5.5-1.8 7-3.9 5.3-7.2-.6-1.1-1.1-2.9-1.1-4 0-1.2-.3-2.1-.7-2-.5 0-3 .6-5.8 1.3zM425.6 212.7c-.5 1.3.1 2.6 2.4 4.5l3 2.8h-4.3c-4.2 0-4.3.1-7 5.5-3.3 6.8-3.4 9.2-.4 10.5 3.2 1.4 6 3.3 7.3 4.9 2.5 3.1 8-3.7 7.2-9-.5-3.6-3.8-3.7-6.5-.3l-2.3 2.9.6-3.3c.5-2.7.2-3.7-1.6-5.4-2.9-2.7-1.9-3.1 5.1-2.1 4.6.7 5.4 1.1 5.4 3 0 3.1 1.2 3.8 2.5 1.3 1.6-3.1 0-6.6-5.9-12.4-4.2-4.1-4.9-4.5-5.5-2.9zM423 231c0 .5-.4 1-1 1-.5 0-1-.5-1-1 0-.6.5-1 1-1 .6 0 1 .4 1 1zm7.4 4.4c-.3.9-1 1.6-1.5 1.6-.6 0-.5-.9.1-2.1 1.3-2.4 2.4-2 1.4.5zM61.6 223.6c-.3.9-.6 2.8-.6 4.2 0 2.1-.2 2.4-1 1.2-.5-.8-1-2.6-1-3.8 0-1.5-.5-2.2-1.2-1.9-3.4 1.1.1 11.7 3.8 11.7 1.8 0 3.7-3.8 3.1-6.1-.3-1-.1-2.1.3-2.4.5-.3 1 .7 1.2 2.2.2 1.7.9 2.8 1.8 2.8 1.7 0 1.7-3.7-.2-7.3-1.3-2.6-5.3-3-6.2-.6zM186.5 230.7c-3.4.9-6.5 4.5-6.5 7.4 0 4.2 3.2 5.9 11.2 5.9 3.8 0 6.8.4 6.8.9 0 .6-5.6.9-12.9.9-11.7-.1-13-.3-13.4-2-.3-1.2-1.4-1.8-3.1-1.8-2.4 0-2.6.3-2.6 4.6v4.5l-3.2-2.4c-4.3-3.2-7.2-4-11.5-3.2-3.6.6-12.3 7.7-12.3 10 0 2.1 3.6 4.5 6.8 4.5 3.5 0 4.1 1.4 1.8 4.6-1.3 1.7-1.2 2.1.1 3.6.9 1 2.1 1.8 2.7 1.8.6 0 3.9-2.8 7.4-6.3 7.3-7.2 8.2-6.9 8.2 2.8v6l-9.6.3c-10.9.3-12.4-.4-12.4-5.4 0-2.4-.5-3.4-2-3.9-3-1-4 .2-4 4.6 0 8.6 4.4 11.4 16.6 10.6 7.8-.4 8.4-.3 10.5 1.9 1.2 1.3 3.3 2.4 4.6 2.4 2.3 0 2.3 0 2.4-14.3.1-7.8.2-14.8.3-15.6.1-1 1.3-1.5 3.6-1.5h3.5l.5 8.9c.6 10.6 2.1 12.6 6.7 8.4 3.3-3 9.9-7.9 10.7-7.9.2 0 .2 1.6-.1 3.4-.6 3.9.4 13.4 1.6 15.4 1.2 2 6.4.4 5.6-1.7-1.6-3.8-1.7-12.7-.2-16.8 1.3-4 1.3-4.4-.4-6.4-2.3-2.6-4.4-2.2-12.1 2.5l-5.8 3.5v-10l13 .3 12.9.3.3 14.5.3 14.5 2.7.3 2.7.3.3-14.8.3-14.8 2.8-.3c2.4-.3 2.8-.7 2.5-3-.2-2-.9-2.7-2.6-2.7-1.8 0-2.7-.9-3.7-3.8-1.7-4.9-3-6.4-7.9-8.9-4.1-2.1-18.5-3.4-23.1-2.1zm18.9 6.7c3.2 1.3 6.6 5 6.6 7.1 0 .6-1.7 1-3.9 1-3.3 0-4-.4-4.9-2.7-1.2-3.4-4.7-4.8-11.3-4.8-3.1 0-4.8-.4-4.4-1 .9-1.5 14.1-1.2 17.9.4zm-47 14.9c1.6 1.2 1.5 1.4-.9 3.7l-2.5 2.4-2-2.2c-1.2-1.2-2.8-2.2-3.8-2.2-1.3-.1-1.1-.4.8-1.5 3.1-1.8 6.1-1.9 8.4-.2zM69 235.5c0 .8-1.5 2.1-3.4 2.9-1.8.8-3.6 1.8-3.9 2.3-1.1 1.7.9 6.8 2.8 7.1 1.4.3 1.7-.1 1.2-2-.5-2-.2-2.7 1.9-3.6 3.2-1.5 3.1-1.6 3.7.9.8 2.8 3.3 1.8 2.9-1.1-.1-1.3.3-2.7.9-3.1 1.7-1 .2-4.2-1.6-3.5-.8.3-1.5.1-1.5-.4 0-.6-.7-1-1.5-1s-1.5.7-1.5 1.5zM413.6 239.3c-3.6 3.2-4.3 7-1.7 9.6 4.4 4.4 11.1 1.4 11.1-4.9 0-3.3-1-4.7-4.3-5.9-2.2-.9-3.1-.7-5.1 1.2zm5.4 4.2c1.6 2 .1 3.9-2.6 3.3-2.7-.5-3.2-4.8-.6-4.8 1.1 0 2.5.7 3.2 1.5zM341 246v7h6v-14h-6v7zM251 246.6v4.6l-3-2.5c-3.5-3-7.8-4.1-12.2-3.2-3.6.8-11.7 6.4-11.8 8.1 0 1.9 4.1 4.9 6.5 4.6 1.3-.2 2.6.1 2.9.7.8 1.3-2.1 4.1-4.3 4.1-.9 0-2.5.6-3.4 1.2-1.5 1.2-1.4 1.7 2.1 6.2 5.4 7.2 10 10.4 16.4 11.8 10.2 2.1 17.2-1.9 17.2-9.8 0-1.9-1-4.7-2.2-6.4-1.9-2.5-2.2-4.1-2-8.8.3-5.6.4-5.7 3.3-5.7 2.5-.1 3.1-.5 3.3-2.8.3-2.4 0-2.7-2.7-2.7-2 0-3.5-.7-4.3-2-.7-1.1-2.3-2-3.5-2-2.1 0-2.3.5-2.3 4.6zm-7.2 5.8c.3.3-.5 1.4-1.8 2.4-2.2 1.8-2.3 1.8-4.5-.2-1.2-1.2-1.9-2.5-1.7-3 .5-.8 7-.2 8 .8zm7.2 8.7c0 .4-1.4 1-3 1.4-4.3.9-6 3.1-6 7.6 0 3.7.2 3.9 3 3.9 2.5 0 3-.4 3-2.4 0-3 1.4-4 4.4-3.2 3.2.8 4 3.3 2.1 6.2-1.2 1.9-2.4 2.4-5.8 2.4-5.5 0-10.2-2.6-14.6-8.1-2-2.4-2.7-3.6-1.6-2.7 2 1.7 2.3 1.5 9-3.8 6.4-5.1 7-5.4 8.2-3.8.7 1 1.3 2.1 1.3 2.5zM283.3 246.2c-1.8 2.4-2.3 4.9-1.3 6.9 1.2 2.2 6 4.9 8.8 4.9 1.1 0 3 .9 4.3 2l2.4 2-2.5 2.1c-2.2 1.8-3.4 2.1-9.2 1.7-6.4-.5-6.7-.4-7.3 2-.3 1.3-.5 2.5-.3 2.7.2.1 3.6 1.2 7.6 2.5 4 1.2 9.3 3.8 11.8 5.7 4.4 3.4 4.6 3.4 6.5 1.7 2.6-2.4 2.4-2.9-1.8-5.6-2-1.3-4.1-2.6-4.6-2.9-.4-.3.5-2 2.2-3.7 5.8-5.8 3.4-12.9-5.2-15.3-2.3-.6-4.8-1.3-5.5-1.5-.8-.2-1.1-1.1-.7-2.3.4-1.4 0-2.3-1.4-3-2.5-1.4-2.6-1.4-3.8.1zM315.3 248.5c-9.1 7.2-4.9 18.9 6.7 18.9h5v4.6c0 5.2 1.9 7.8 6.1 8.2 2.1.3 2.4-.2 2.7-3 .2-2.4-.1-3.2-1.2-3.2-1.4 0-1.6-1.7-1.6-11.5 0-11-.1-11.7-2.5-14-3.4-3.5-10.7-3.5-15.2 0zm10.1 4.1c.9.8 1.6 3.1 1.6 5v3.5l-4.7-.3c-4.1-.3-4.8-.6-5.1-2.6-.5-3.2 1.5-5.4 6.5-7.1.1-.1.9.6 1.7 1.5zM74.5 250c.9 2.9-4.2 4.8-6.1 2.3-.9-1.3-1.6-1.5-2.4-.7-.8.8-.5 2.3 1.1 5.8 2.2 4.4 4.5 5.7 4.3 2.3-.1-.9 1.5-2.2 3.7-3.3 4.3-1.9 4.4-2.1 2.9-5.8-1.2-3.1-4.5-3.7-3.5-.6zM80 251c0 1.5.5 2 1.8 1.8.9-.2 1.7-1 1.7-1.8s-.8-1.6-1.7-1.8c-1.3-.2-1.8.3-1.8 1.8zM399.2 252.7c-.9 2-.9 3-.1 3.7.8.8 1.3.7 1.6-.2.7-1.8 1.9-1.5 6.4 1.5 2.5 1.7 3.6 3 3 3.6-1 1-.4 3.7.9 3.7 1 0 6-7.6 6-9.1 0-.7-.9-.9-2.2-.6-1.5.4-3.8-.4-7-2.3-5.9-3.7-7-3.7-8.6-.3zM432.9 262.3c-3.6 7.9-14 25.7-17.5 30-1.3 1.5-3.1 4.4-4 6.3-2.3 4.9-23.9 27-35.9 36.9-5.5 4.5-12.9 9.8-16.3 11.6-7.6 4.1-10.1 5.5-16.7 9.4-2.7 1.6-6.7 3.7-8.7 4.7-3.8 1.7-4.7 3.1-2.8 4.3 1.5.9 34.7-18.2 42.5-24.6 3.9-3.1 13.3-12.1 21-20 11.2-11.5 15.6-16.9 21.9-26.9 8.1-12.6 20.3-35.7 19.4-36.5-.3-.3-1.5 1.9-2.9 4.8zM80.1 261.3c-.5 1.4-1.9 2.8-3 3.2-3.4 1-4.4 4-2.6 7.5.9 1.6 1.9 3 2.4 3 1.6 0 2-1.3 1-3.1-.7-1.5-.4-2.2 1.7-3.6 2.4-1.6 2.7-1.6 3.6 0 1.4 2.5 4.1 2.2 3.3-.3-.4-1.2-.1-2.7.5-3.5 1.4-1.7.5-3.5-1.9-3.5-.9 0-2.2-.5-2.9-1.2-.8-.8-1.4-.5-2.1 1.5zM50.8 262.5c.5 1.1 1.2 2.7 1.5 3.5.5 1.3.6 1.3.6-.1.1-.8-.6-2.4-1.5-3.5-1.5-1.9-1.5-1.9-.6.1zM396.6 264.2c-3.5 4.9-.7 10.8 5.1 10.8 5.1 0 8.3-7.9 4.5-11.3-2.7-2.5-7.8-2.2-9.6.5zm7.2 4.6c.3 2 0 2.3-2 2-1.5-.2-2.4-1.1-2.6-2.6-.3-2 0-2.3 2-2 1.5.2 2.4 1.1 2.6 2.6zM55.5 273.5c.3 1.1 3.3 6.8 6.6 12.6 17.5 30.7 42.1 54.5 71.9 69.4 5.2 2.6 10.7 5.6 12.2 6.6 2.7 1.9 4.3 1.3 3.3-1.3-.7-1.6-7.4-5.6-17.4-10.3-17.8-8.5-37.5-24.2-52.3-41.7C74 302 63 286 59.7 279.5c-3.2-6.1-5.2-9-4.2-6zM83.8 275.2c-3 1.7-3.8 2.8-3.8 5 0 1.6.7 3.1 1.5 3.4.8.4 1.5 1.4 1.5 2.4 0 3.2 1.5 3 6.9-.6 4.7-3.2 5.1-3.8 3.9-5.1-1.3-1.2-1.9-1.2-5.1.7-2.6 1.5-3.7 1.8-4.3.9-.7-1.1.2-2.1 5-5.3 2-1.3 1.5-3.6-.7-3.6-.7 0-2.9 1-4.9 2.2zM389.2 274.2c-.7.7-1.2 1.7-1.2 2.4 0 .6-.7 1.4-1.5 1.8-2.4.9-1.8 1.9 3 6 3.8 3.1 4.8 3.6 6.1 2.5 1.3-1.1 1.1-1.6-1.6-4.4-2.7-2.8-3.9-5.5-2.4-5.5.3 0 2.1 1.2 3.9 2.6 3.4 2.5 5.5 2.5 5.5 0 0-1.8-6.4-6.6-8.7-6.6-1.1 0-2.4.5-3.1 1.2zM94.3 285.9c.3 1.2-.4 2.3-2.4 3.5-3.3 1.9-3.8 4.9-1.3 8.4 2.1 3.1 3.7 2.8 2.9-.6-.4-2.1 0-3.3 1.5-4.7 2-1.8 2.2-1.9 3.1-.2.6.9 1.7 1.7 2.4 1.7 1.7 0 2-2.6.5-3.5-.8-.5-.7-1.1.1-2.1 1.6-2-.1-3.6-4.2-4.1-2.6-.3-3.1 0-2.6 1.6zM380 286.1c-1.1 1.9-1.3 2-3 .4-1.9-1.7-4-1.3-4 .8 0 .7 2.7 3.6 5.9 6.4 5.1 4.5 6.1 5 7.2 3.7 1-1.2.7-2-1.4-4.2-2.6-2.8-3.5-5.2-1.9-5.2.5 0 1.9 1.1 3.2 2.5 2.6 2.8 4.8 3.2 5.6 1.1.7-1.9-5.4-7.5-8.3-7.6-1.3 0-2.7.9-3.3 2.1zM370.8 295.7c-2.8 3.2-3 5.8-.7 8.6 3.4 4.5 10.9 2.7 10.9-2.6 0-2.2-.9-2.1-3.2 0-1.4 1.3-2.3 1.5-3.5.7-2.5-1.6-2.6-3.1-.4-5 1.1-1 1.8-2.1 1.5-2.6-.9-1.3-3-.9-4.6.9zM100.2 298c-1.2.5-2.7 2.1-3.4 3.5-1 2.1-.8 3 .8 5.2 1.1 1.5 2.7 3.1 3.7 3.7 2.6 1.7 3.2-.2.9-2.7-2.2-2.3-2.9-4.7-1.4-4.7.4 0 1.6 1.3 2.5 3 2.2 3.6 3.2 3.7 5.2.6 1.5-2.2 1.5-2.7 0-5.5-.8-1.7-2-3.1-2.4-3.1-.5 0-1.5-.2-2.3-.4-.7-.3-2.3-.1-3.6.4zm5.8 5.1c0 .6-.4.7-1 .4-.5-.3-1-1.1-1-1.6 0-.6.5-.7 1-.4.6.3 1 1.1 1 1.6zM359.7 306.8c-3.9 4.3-.2 12 5.1 10.7 2.9-.6 6.2-3.9 6.2-6.1 0-2-1-1.7-3.7.8-1.3 1.2-2.6 1.8-3 1.4-.5-.4.5-1.9 2-3.2 2.4-2 2.7-2.7 1.7-3.9-1.7-2.1-6.4-1.9-8.3.3zm3.3 2.7c-.7.9-1.5 1.3-1.7 1.1-.7-.7.7-2.6 1.9-2.6.6 0 .6.6-.2 1.5zM347.1 312.9c-2.6 2.2-4.1 4.3-3.7 4.9.5.9 1.2.9 2.6 0 1.8-1.2 3.6.3 8.5 6.9 1 1.4 4.5.9 4.5-.6 0-.4-1.7-2.7-3.7-5-3.1-3.7-3.5-4.6-2.4-6.3 1.1-1.8.8-3.8-.7-3.8-.4 0-2.7 1.8-5.1 3.9zM119 314c-2.7 2.7-2.5 6.2.3 8.8 2.3 2.2 6.2 2.8 8.3 1.4 1.3-.9 3.4-4.6 3.4-6.2 0-2-4.9-6-7.5-6-1.4 0-3.4.9-4.5 2zm7.5 3.9c0 .8-.8 1.9-1.7 2.5-2.2 1.3-4.1-.3-3.2-2.8.8-2 4.9-1.8 4.9.3zM136.7 320.5c-1.1.7-2.5 1.1-3.2.9-1.6-.7-2.9 1.2-1.5 2.1.7.4.2 1.7-1.1 3.6-3.5 5-.8 8.1 3 3.3 1.4-1.8 2.6-2.4 4-1.9 1.1.3 2.3 0 2.7-.7.4-.6.2-1.4-.4-1.6-1.3-.4-1.7-3.2-.4-3.2.4 0 1.3.5 2 1.2.9.9 1.5.9 2.5-.1s.7-1.6-1.2-3.2c-2.7-2.2-4-2.3-6.4-.4zM317.3 331.7c-.7.3-1.3 1.5-1.3 2.7 0 1.5-.9 2.7-2.5 3.4-2.9 1.4-4 4.8-2.6 8.5 1.1 2.9 5.5 4.7 7.4 2.8.6-.6 2.1-1.1 3.4-1.1 2.9 0 3-2 .1-9.7-2.5-6.7-2.8-7.2-4.5-6.6zm1.2 10.3c.8 2.4-.1 4-2.1 4-.9 0-1.4-1.1-1.4-3 0-3.5 2.5-4.2 3.5-1zM172.3 333.7c-2.5 1-1.5 6.1 1.7 8.5 3.8 2.8 2.5 4.7-2 2.8-2.1-.9-3.4-1-4.1-.3-1.6 1.6 2.9 4.3 7.1 4.3 6.5 0 8-4.2 2.9-8.4-3.2-2.8-3.2-5.4.1-3.6 2.4 1.3 5 1.3 5 0 0-2.3-7.5-4.7-10.7-3.3zM203 340.4c0 .8.4 1.7.8 2 1.3.8 3.5-1.1 2.8-2.3-1-1.6-3.6-1.4-3.6.3zM302 341c-.8.5-2.6 1-3.9 1-1.9 0-2.2.4-1.7 2.2.3 1.3.9 4 1.2 6 .5 3.2 1.1 3.8 3 3.8 2.7 0 2.9-.7 1.4-4.4-1-2.7-.4-5.6 1.1-5.6.5 0 1.2 1.2 1.5 2.7 1.1 4.6 2.3 6.3 4 5.6 2.9-1.1-.7-12.3-3.9-12.3-.6 0-1.9.5-2.7 1zM184.6 342.6c-1.6 1.6-2.1 5-1 7.8.8 2 7.2 4.2 8.6 2.8 1.4-1.4.1-3.2-2.2-3.2-2.4 0-3.3-1.5-2.5-4 .6-1.7 1.2-2 4.1-1.4 3.5.6 4.3-.3 2.2-2.4-1.7-1.7-7.4-1.5-9.2.4zM198 344.5c0 .8.7 1.5 1.5 1.5.9 0 1.5.9 1.5 2.2 0 3-1.5 5.2-2.8 4.4-1.4-.8-2.7 1.3-1.6 2.4.5.5 3 1.1 5.7 1.5 3.9.6 4.7.5 4.7-.9 0-.9-.5-1.6-1.1-1.6-.8 0-1-1.6-.6-4.9.6-4.8.5-4.9-2.5-5.5-4.4-.9-4.8-.8-4.8.9zM283.5 345.3c-2.4 1.8-1.1 4.1 1.5 2.7 1-.5 2.7-1 3.7-.9 1.2 0 .8.5-1.3 1.4-4.5 2-5.8 3.9-4.4 6.5 1 1.8 1.8 2.1 4.3 1.6 1.8-.3 4.3-.7 5.7-.9 2.3-.2 2.5-.6 2.1-4.2-.5-6.1-1.6-7.5-5.9-7.5-2.1 0-4.6.6-5.7 1.3zm6.5 7.2c-.7.8-1.7 1.2-2.2.9-.6-.4-.5-1 .3-1.5 2.2-1.4 3.3-1 1.9.6zM213.4 346.7c-4.9 3.5-3.5 10.8 2.2 11.9 1.9.3 4.1.3 5 0 1.8-.7 1.3-3.2-.6-2.8-1.7.4-5-.8-5-1.8 0-.4 1.8-.6 4-.3 3.7.5 4 .4 4-1.8 0-1.3-.4-3-.8-3.7-1-1.5-7.2-2.6-8.8-1.5zm4.6 3.3c0 .5-.2 1-.4 1-.3 0-.8-.5-1.1-1-.3-.6-.1-1 .4-1 .6 0 1.1.4 1.1 1zM225.5 352.7c-.7 5.8.2 8 2.9 7 .8-.3 1.6-2.2 1.8-4.3.5-5.7 2.8-5.6 2.8 0 0 3.9.3 4.6 1.9 4.6 1.5 0 2-.9 2.3-4.6.4-6-.7-7.4-6.4-7.9l-4.6-.3-.7 5.5zM257 348.3c-3.2 1.6-4.1 8.4-1.4 10.4 2 1.5 7.2 1.7 9.3.4 2.1-1.3.3-3.2-2.4-2.5-1.3.3-3 .2-3.7-.3-.9-.5 0-1 2.7-1.3 3.1-.4 4.1-1 4.3-2.6.5-3.7-4.7-6.2-8.8-4.1zm3.7 3.3c-.3.3-1.2.4-1.9.1-.8-.3-.5-.6.6-.6 1.1-.1 1.7.2 1.3.5zM242.1 349.9c-3.8 3.8-2.2 9.4 2.9 10.4 3.6.8 6 0 6-1.9 0-.9-1.1-1.4-2.9-1.4-3.2 0-4.8-2.4-3-4.6.6-.8 2.3-1.4 3.6-1.4 3.6 0 2.3-2.4-1.5-2.8-2.1-.2-3.7.3-5.1 1.7zM177.5 387.2c-1.9 5.8-3.3 13.4-2.5 14.2.6.6 1.1.4 1.4-.5 1.4-4 3.6-12.4 3.6-13.6 0-1.7-1.9-1.7-2.5-.1zM186.7 386.6c-.9.9-.9 10-.1 13.2.6 2.1 1.2 2.3 5.8 2 3.7-.2 5.1-.7 5.1-1.8 0-1-1.2-1.6-3.7-1.8-5.1-.4-5.3-3.2-.3-3.2 2.4 0 3.5-.5 3.5-1.5s-1.1-1.5-3.5-1.5-3.5-.5-3.5-1.5c0-1.4 3.6-2.9 5.7-2.3.6.2 1.3-.2 1.5-.7.4-1.1-9.4-2-10.5-.9zM203 386.7c-4.5 1.7-4 6.1 1 8 2.2.9 4 2.2 4 3 0 1.8-3.9 1.7-4.6-.2-.7-1.8-3.4-2-3.4-.3.1 3.7 5 5.6 9 3.5 4.1-2.1 3.4-5.8-1.7-8.2-4.8-2.2-5.5-3.5-1.8-3.5 1.4 0 2.5.4 2.5 1 0 .5.7 1 1.5 1 2.2 0 1.9-2.7-.4-4-2.1-1.1-3.7-1.2-6.1-.3zM213.7 386.6c-1.3 1.3-.7 2.4 1.3 2.4 1.8 0 2 .7 2 5.4 0 3.3.5 5.8 1.3 6.5 2.1 1.7 2.7.3 2.7-6.1 0-5.6.1-5.8 2.6-5.8 1.6 0 2.4-.5 2.2-1.3-.5-1.3-10.9-2.3-12.1-1.1zM227.5 387.2c-.3.8-.5 4.4-.3 7.9l.3 6.4 4.2-.1c5.6-.1 8.3-2.5 8.3-7.4 0-5.2-1.8-7.1-7.3-7.7-3.6-.4-4.8-.2-5.2.9zm8 3.4c1 1 1.4 2.5 1.1 3.8-.3 1.2-.6 2.4-.6 2.8 0 .5-1.2.8-2.7.8-2.6 0-2.8-.2-2.6-4.2.1-2.4.2-4.4.2-4.6.3-.8 3.2.1 4.6 1.4zM262.3 388.9c-3.9 3.3-4.2 4.5-.9 3.7 2.4-.6 2.5-.3 2.8 4.1.2 2.7.8 4.8 1.3 4.8 1.2 0 1.9-13.5.8-14.6-.4-.4-2.3.5-4 2zM272.6 387.6c-.9.8-1.6 2.8-1.6 4.4 0 2.8 1.5 4 5.1 4 1 0 1.9.5 1.9 1 0 1.6-3.3 2.6-3.8 1.2-.5-1.7-3.2-1.5-3.2.3 0 .9 1.1 2 2.5 2.7 5.2 2.3 9.7-4.4 7.4-11.1-.6-1.6-2-3.2-3.2-3.5-3.1-.8-3.4-.8-5.1 1zm5.2 3.6c-.2 1.3-1 2.3-1.8 2.3s-1.6-1-1.8-2.3c-.3-1.7.2-2.2 1.8-2.2s2.1.5 1.8 2.2zM284.9 387.9c-2 1.6-2.2 2.3-1.4 4.7.8 2.3 1.7 3 4.3 3.2 1.7.2 3.2.8 3.2 1.3 0 1.5-3 2.3-4.3 1-1.5-1.5-2.7-1.4-2.7.4 0 2.2 3.5 3.7 6.3 2.6 2.9-1.1 3.7-2.9 3.7-8.1 0-2.9-.6-4.3-2.2-5.4-2.9-2.1-4.1-2-6.9.3zm5.5 2c.9 1.4-.4 4.1-1.9 4.1s-2.8-2.7-1.9-4.1c.3-.5 1.1-.9 1.9-.9.8 0 1.6.4 1.9.9zM297.8 387.1c-2.2 1.2-2.4 3.9-.3 3.9.8 0 1.5-.5 1.5-1 0-1.3 2.7-1.3 3.5 0 .3.6-.6 1.5-2 2-2.9 1.1-2.5 3 .6 3 1.2 0 1.9.7 1.9 2 0 2.4-3.5 2.8-4.4.5-.8-2.2-2.6-1.8-2.6.5 0 2.8 4.2 4.3 7.5 2.8 2.4-1.1 2.5-1.6 2.2-7-.4-7.3-3.1-9.6-7.9-6.7zM167.8 390.3c-6.2 2.7-6.1 4.6.2 7.4 4.8 2.1 5 2.1 5 .3 0-1.3-.9-2.2-2.5-2.6-3.3-.8-3.2-2 .5-3.3 2.9-.9 3.9-2.5 2.3-3.4-.5-.2-2.9.5-5.5 1.6zM308 389.9c0 1.2 1.1 2.1 3.3 2.8l3.2.9-2.9 1.5c-3.2 1.5-4.6 3.9-2.4 3.9 2.2-.1 9.8-3.8 9.8-4.9 0-.9-8.9-6.1-10.5-6.1-.3 0-.5.8-.5 1.9zM248.2 392.1c.2.6.8 1 1.3 1s1.1-.4 1.3-1c.2-.6-.4-1.1-1.3-1.1s-1.5.5-1.3 1.1zM248.6 398.7c-1.1 1.1-.6 2.3.9 2.3.8 0 1.5-.4 1.5-.9 0-1.3-1.6-2.2-2.4-1.4zM119.7 406.7c-2.2 2.2.2 2.9 12.6 4 16.4 1.5 40.2 6.2 54.4 10.8 19.1 6.3 33.4 14 48.4 26.2 3.6 2.9 7.3 5.3 8.1 5.3.8 0 4.9-2.8 9-6.3 13.9-11.4 30.7-19.9 58.1-29.2 14.5-4.9 28.2-7.5 39.7-7.5 8.8 0 12-.7 12-2.6 0-1.1-2.1-1.4-9.7-1.4-17.6.1-31.2 3-50.3 10.6-4.7 1.9-8.9 3.4-9.3 3.4-.8 0-4.3 1.5-15.7 6.9-11 5.2-18.7 10.6-29.5 20.6l-5 4.6-1.7-2.4c-2.5-3.5-14.2-12.8-21.9-17.4-19.6-11.9-44.9-20-77.4-24.8-9.8-1.5-20.8-1.9-21.8-.8z"/></svg>